<svg width="512" height="512" viewBox="0 0 512 512" xmlns="http://www.w3.org/2000/svg">
  <title>GESTION DU PROJET</title>
  <rect width="512" height="512" rx="110" fill="#1a1a2e"/>
  <rect width="32" height="512" rx="16" fill="#4f46e5"/>
  <!-- Building -->
  <rect x="60" y="320" width="180" height="48" rx="8" fill="#4f46e5" opacity="0.95"/>
  <rect x="68" y="272" width="164" height="48" rx="8" fill="#4f46e5" opacity="0.75"/>
  <rect x="80" y="224" width="140" height="48" rx="8" fill="#4f46e5" opacity="0.5"/>
  <!-- Windows -->
  <rect x="80" y="332" width="22" height="26" rx="4" fill="#1a1a2e" opacity="0.5"/>
  <rect x="116" y="332" width="22" height="26" rx="4" fill="#1a1a2e" opacity="0.5"/>
  <rect x="152" y="332" width="22" height="26" rx="4" fill="#10b981" opacity="0.8"/>
  <rect x="188" y="332" width="22" height="26" rx="4" fill="#1a1a2e" opacity="0.5"/>
  <!-- Crane -->
  <rect x="295" y="100" width="22" height="270" rx="4" fill="#4f46e5"/>
  <rect x="160" y="100" width="160" height="18" rx="4" fill="#4f46e5"/>
  <rect x="140" y="88" width="36" height="42" rx="6" fill="#6366f1"/>
  <rect x="290" y="96" width="28" height="16" rx="4" fill="#10b981"/>
  <line x1="304" y1="118" x2="304" y2="220" stroke="#94a3b8" stroke-width="3"/>
  <path d="M294 220 Q294 240 314 240 Q326 240 326 228" fill="none" stroke="#94a3b8" stroke-width="3.5" stroke-linecap="round"/>
  <!-- Ground -->
  <line x1="50" y1="368" x2="420" y2="368" stroke="#334155" stroke-width="3"/>
  <!-- Progress bar -->
  <rect x="50" y="382" width="370" height="10" rx="5" fill="#1e293b"/>
  <rect x="50" y="382" width="240" height="10" rx="5" fill="#10b981"/>
  <!-- Ghost G -->
  <text x="390" y="200" font-family="'Segoe UI', system-ui, sans-serif" font-size="160" font-weight="700" fill="#4f46e5" opacity="0.15" text-anchor="middle">G</text>
  <!-- Text -->
  <text x="256" y="444" font-family="'Segoe UI', system-ui, sans-serif" font-size="36" font-weight="700" fill="#ffffff" text-anchor="middle" letter-spacing="3">GESTION</text>
  <text x="256" y="476" font-family="'Segoe UI', system-ui, sans-serif" font-size="18" font-weight="400" fill="#64748b" text-anchor="middle" letter-spacing="5">DU PROJET</text>
</svg>
